<?xml version="1.0" standalone="no"?>
<!DOCTYPE svg PUBLIC "-//W3C//DTD SVG 20010904//EN"
 "http://www.w3.org/TR/2001/REC-SVG-20010904/DTD/svg10.dtd">
<svg version="1.0" xmlns="http://www.w3.org/2000/svg"
 width="700.000000pt" height="700.000000pt" viewBox="0 0 700.000000 700.000000"
 preserveAspectRatio="xMidYMid meet">
<metadata>
Created by potrace 1.14, written by Peter Selinger 2001-2017
</metadata>
<g transform="translate(0.000000,700.000000) scale(0.100000,-0.100000)"
fill="#000000" stroke="none">
<path d="M4874 5764 c-64 -23 -119 -77 -155 -150 -31 -62 -33 -73 -37 -200
l-5 -134 293 0 292 0 -4 138 c-3 112 -7 145 -24 183 -28 59 -76 114 -131 146
-56 33 -165 41 -229 17z"/>
<path d="M4680 4160 l0 -1110 290 0 290 0 0 1110 0 1110 -290 0 -290 0 0
-1110z"/>
<path d="M2124 4976 c-160 -31 -291 -96 -405 -204 -129 -121 -200 -242 -239
-405 -19 -77 -20 -120 -20 -699 l0 -618 254 0 255 0 3 598 c3 583 4 598 24
643 30 63 79 116 138 147 43 22 64 27 131 27 70 0 87 -4 134 -30 29 -16 68
-47 87 -68 65 -77 64 -67 64 -724 l0 -593 265 0 264 0 3 598 3 597 24 53 c50
111 169 180 291 169 103 -9 182 -64 229 -159 l31 -61 0 -599 0 -598 260 0 261
0 -3 638 c-4 706 -2 678 -73 829 -107 227 -297 386 -540 449 -100 26 -293 24
-397 -4 -102 -28 -212 -82 -287 -143 l-61 -49 -55 45 c-69 55 -218 129 -305
150 -93 22 -251 27 -336 11z"/>
<path d="M3430 2480 l-2015 -5 -57 -23 c-132 -53 -237 -147 -301 -270 -69
-131 -67 -89 -67 -1179 l0 -982 48 -8 c61 -10 4895 -11 4945 0 l37 8 0 982 c0
1080 2 1042 -62 1174 -22 46 -56 91 -103 138 -103 103 -222 159 -355 167 -30
2 -962 2 -2070 -2z m2142 -297 c66 -30 143 -105 175 -172 l28 -56 0 -240 c0
-239 0 -240 -26 -296 -33 -69 -91 -129 -161 -166 l-53 -28 -2030 0 -2030 0
-53 28 c-69 36 -129 98 -161 167 -26 54 -26 57 -26 295 0 226 1 243 22 287 26
55 90 129 140 159 80 50 -16 48 2123 46 l2005 -2 47 -22z"/>
<path d="M3479 1936 c-172 -61 -212 -289 -72 -405 74 -61 200 -68 276 -15 90
64 127 163 97 268 -34 123 -179 196 -301 152z"/>
<path d="M4271 1936 c-91 -33 -154 -123 -154 -221 0 -133 101 -235 233 -235
133 0 233 101 233 235 0 161 -162 276 -312 221z"/>
<path d="M5035 1926 c-89 -41 -135 -115 -135 -213 1 -180 179 -287 341 -205
139 70 169 243 63 361 -73 81 -173 102 -269 57z"/>
<path d="M1823 1919 c-78 -38 -124 -114 -125 -203 -1 -131 97 -230 227 -230
130 0 229 98 228 229 0 95 -52 175 -140 212 -50 20 -141 17 -190 -8z"/>
<path d="M2634 1921 c-74 -34 -134 -126 -134 -208 0 -42 28 -118 50 -138 17
-15 22 -16 37 -4 17 13 17 13 0 -7 -16 -20 -16 -21 1 -37 59 -54 171 -62 253
-19 65 34 105 88 120 162 20 98 -23 186 -119 242 -58 34 -144 38 -208 9z m146
-205 c0 -2 -8 -10 -17 -17 -16 -13 -17 -12 -4 4 13 16 21 21 21 13z m-40 -30
c0 -2 -8 -10 -17 -17 -16 -13 -17 -12 -4 4 13 16 21 21 21 13z m-90 -70 c0 -2
-8 -10 -17 -17 -16 -13 -17 -12 -4 4 13 16 21 21 21 13z"/>
</g>
</svg>
